<mxfile host="app.diagrams.net" modified="2024-01-17T19:32:14.131Z" agent="Mozilla/5.0 (Windows NT 10.0; Win64; x64) AppleWebKit/537.36 (KHTML, like Gecko) Chrome/120.0.0.0 Safari/537.36" etag="z4wl9cpT5h5cnDvr5bQ1" version="22.1.18" type="device">
  <diagram name="Page-1" id="q2UoTlxfhf4317XDj33P">
    <mxGraphModel dx="913" dy="537" grid="1" gridSize="10" guides="1" tooltips="1" connect="1" arrows="1" fold="1" page="1" pageScale="1" pageWidth="850" pageHeight="1100" math="0" shadow="0">
      <root>
        <mxCell id="0" />
        <mxCell id="1" parent="0" />
        <mxCell id="DOi00ankBN_rJcE7ZQ-X-3" value="Admin" style="shape=umlActor;verticalLabelPosition=bottom;verticalAlign=top;html=1;outlineConnect=0;" parent="1" vertex="1">
          <mxGeometry x="170" y="170" width="30" height="60" as="geometry" />
        </mxCell>
        <mxCell id="DOi00ankBN_rJcE7ZQ-X-4" value="" style="rounded=0;whiteSpace=wrap;html=1;" parent="1" vertex="1">
          <mxGeometry x="250" y="140" width="520" height="580" as="geometry" />
        </mxCell>
        <mxCell id="DOi00ankBN_rJcE7ZQ-X-5" value="Backend Server" style="shape=umlActor;verticalLabelPosition=bottom;verticalAlign=top;html=1;outlineConnect=0;" parent="1" vertex="1">
          <mxGeometry x="790" y="320" width="30" height="60" as="geometry" />
        </mxCell>
        <mxCell id="8O4i6KFrKmY47k0z4YiL-1" value="&lt;font style=&quot;font-size: 18px;&quot;&gt;&lt;b&gt;Jomcamp&lt;/b&gt;&lt;/font&gt;" style="text;html=1;strokeColor=none;fillColor=none;align=center;verticalAlign=middle;whiteSpace=wrap;rounded=0;" parent="1" vertex="1">
          <mxGeometry x="462.5" y="140" width="60" height="30" as="geometry" />
        </mxCell>
        <mxCell id="8O4i6KFrKmY47k0z4YiL-4" value="Display User Details" style="ellipse;whiteSpace=wrap;html=1;" parent="1" vertex="1">
          <mxGeometry x="335" y="240" width="105" height="40" as="geometry" />
        </mxCell>
        <mxCell id="8O4i6KFrKmY47k0z4YiL-5" value="Display Campsite Details" style="ellipse;whiteSpace=wrap;html=1;" parent="1" vertex="1">
          <mxGeometry x="437.5" y="430" width="110" height="50" as="geometry" />
        </mxCell>
        <mxCell id="8O4i6KFrKmY47k0z4YiL-6" value="Search Campsite" style="ellipse;whiteSpace=wrap;html=1;" parent="1" vertex="1">
          <mxGeometry x="442.5" y="353" width="115" height="50" as="geometry" />
        </mxCell>
        <mxCell id="8O4i6KFrKmY47k0z4YiL-8" value="Add Campsite Booking" style="ellipse;whiteSpace=wrap;html=1;" parent="1" vertex="1">
          <mxGeometry x="332.5" y="470" width="105" height="40" as="geometry" />
        </mxCell>
        <mxCell id="8O4i6KFrKmY47k0z4YiL-9" value="Rent Camping Equipment" style="ellipse;whiteSpace=wrap;html=1;" parent="1" vertex="1">
          <mxGeometry x="327.5" y="560" width="115" height="40" as="geometry" />
        </mxCell>
        <mxCell id="8O4i6KFrKmY47k0z4YiL-10" value="Checkout" style="ellipse;whiteSpace=wrap;html=1;" parent="1" vertex="1">
          <mxGeometry x="600" y="560" width="105" height="40" as="geometry" />
        </mxCell>
        <mxCell id="8O4i6KFrKmY47k0z4YiL-11" value="Create Community Post" style="ellipse;whiteSpace=wrap;html=1;" parent="1" vertex="1">
          <mxGeometry x="438.75" y="280" width="122.5" height="60" as="geometry" />
        </mxCell>
        <mxCell id="8O4i6KFrKmY47k0z4YiL-12" value="&lt;font style=&quot;font-size: 8px;&quot;&gt;Campsite Alert Notification&lt;/font&gt;" style="ellipse;whiteSpace=wrap;html=1;" parent="1" vertex="1">
          <mxGeometry x="547.5" y="180" width="90" height="40" as="geometry" />
        </mxCell>
        <mxCell id="8O4i6KFrKmY47k0z4YiL-13" value="Administration" style="ellipse;whiteSpace=wrap;html=1;" parent="1" vertex="1">
          <mxGeometry x="335" y="180" width="110" height="40" as="geometry" />
        </mxCell>
        <mxCell id="8O4i6KFrKmY47k0z4YiL-14" value="View Booking History" style="ellipse;whiteSpace=wrap;html=1;" parent="1" vertex="1">
          <mxGeometry x="335" y="330" width="105" height="40" as="geometry" />
        </mxCell>
        <mxCell id="OR7JxCmOTuZEEJR0-Gg7-2" value="Filter Campsite" style="ellipse;whiteSpace=wrap;html=1;" vertex="1" parent="1">
          <mxGeometry x="332.5" y="395" width="115" height="50" as="geometry" />
        </mxCell>
        <mxCell id="OR7JxCmOTuZEEJR0-Gg7-4" value="" style="endArrow=none;html=1;rounded=0;entryX=0;entryY=0.5;entryDx=0;entryDy=0;fillColor=#dae8fc;strokeColor=#6c8ebf;" edge="1" parent="1" target="8O4i6KFrKmY47k0z4YiL-11">
          <mxGeometry width="50" height="50" relative="1" as="geometry">
            <mxPoint x="200" y="420" as="sourcePoint" />
            <mxPoint x="360" y="198" as="targetPoint" />
            <Array as="points">
              <mxPoint x="270" y="310" />
            </Array>
          </mxGeometry>
        </mxCell>
        <mxCell id="OR7JxCmOTuZEEJR0-Gg7-5" value="" style="endArrow=none;html=1;rounded=0;" edge="1" parent="1">
          <mxGeometry width="50" height="50" relative="1" as="geometry">
            <mxPoint x="190" y="419.71000000000004" as="sourcePoint" />
            <mxPoint x="200" y="419.71000000000004" as="targetPoint" />
          </mxGeometry>
        </mxCell>
        <mxCell id="OR7JxCmOTuZEEJR0-Gg7-7" value="" style="endArrow=none;html=1;rounded=0;entryX=0;entryY=0.5;entryDx=0;entryDy=0;fillColor=#dae8fc;strokeColor=#6c8ebf;" edge="1" parent="1" target="8O4i6KFrKmY47k0z4YiL-6">
          <mxGeometry width="50" height="50" relative="1" as="geometry">
            <mxPoint x="200" y="420" as="sourcePoint" />
            <mxPoint x="380" y="290" as="targetPoint" />
            <Array as="points">
              <mxPoint x="260" y="380" />
            </Array>
          </mxGeometry>
        </mxCell>
        <mxCell id="OR7JxCmOTuZEEJR0-Gg7-17" value="" style="endArrow=none;html=1;rounded=0;exitX=1;exitY=1;exitDx=0;exitDy=0;fillColor=#f8cecc;strokeColor=#b85450;" edge="1" parent="1" source="OR7JxCmOTuZEEJR0-Gg7-118">
          <mxGeometry width="50" height="50" relative="1" as="geometry">
            <mxPoint x="730" y="370" as="sourcePoint" />
            <mxPoint x="790" y="350" as="targetPoint" />
            <Array as="points" />
          </mxGeometry>
        </mxCell>
        <mxCell id="OR7JxCmOTuZEEJR0-Gg7-20" value="PayPal" style="shape=umlActor;verticalLabelPosition=bottom;verticalAlign=top;html=1;outlineConnect=0;" vertex="1" parent="1">
          <mxGeometry x="780" y="550" width="30" height="60" as="geometry" />
        </mxCell>
        <mxCell id="OR7JxCmOTuZEEJR0-Gg7-21" value="" style="endArrow=none;html=1;rounded=0;exitX=1;exitY=0.5;exitDx=0;exitDy=0;fillColor=#6a00ff;strokeColor=#3700CC;" edge="1" parent="1" source="8O4i6KFrKmY47k0z4YiL-10">
          <mxGeometry width="50" height="50" relative="1" as="geometry">
            <mxPoint x="710" y="369.5" as="sourcePoint" />
            <mxPoint x="780" y="580" as="targetPoint" />
            <Array as="points" />
          </mxGeometry>
        </mxCell>
        <mxCell id="OR7JxCmOTuZEEJR0-Gg7-23" value="User" style="shape=umlActor;verticalLabelPosition=bottom;verticalAlign=top;html=1;outlineConnect=0;" vertex="1" parent="1">
          <mxGeometry x="160" y="385" width="30" height="60" as="geometry" />
        </mxCell>
        <mxCell id="OR7JxCmOTuZEEJR0-Gg7-24" value="" style="endArrow=none;html=1;rounded=0;entryX=0;entryY=0.5;entryDx=0;entryDy=0;fillColor=#dae8fc;strokeColor=#6c8ebf;" edge="1" parent="1" target="8O4i6KFrKmY47k0z4YiL-5">
          <mxGeometry width="50" height="50" relative="1" as="geometry">
            <mxPoint x="200" y="420" as="sourcePoint" />
            <mxPoint x="298" y="408" as="targetPoint" />
            <Array as="points">
              <mxPoint x="270" y="455" />
            </Array>
          </mxGeometry>
        </mxCell>
        <mxCell id="OR7JxCmOTuZEEJR0-Gg7-26" value="" style="endArrow=none;html=1;rounded=0;entryX=0;entryY=0.5;entryDx=0;entryDy=0;fillColor=#dae8fc;strokeColor=#6c8ebf;" edge="1" parent="1" target="8O4i6KFrKmY47k0z4YiL-4">
          <mxGeometry width="50" height="50" relative="1" as="geometry">
            <mxPoint x="200" y="420" as="sourcePoint" />
            <mxPoint x="159" y="360.5" as="targetPoint" />
            <Array as="points">
              <mxPoint x="270" y="260" />
            </Array>
          </mxGeometry>
        </mxCell>
        <mxCell id="OR7JxCmOTuZEEJR0-Gg7-27" value="" style="endArrow=none;html=1;rounded=0;entryX=0;entryY=0.5;entryDx=0;entryDy=0;fillColor=#dae8fc;strokeColor=#6c8ebf;" edge="1" parent="1" target="OR7JxCmOTuZEEJR0-Gg7-2">
          <mxGeometry width="50" height="50" relative="1" as="geometry">
            <mxPoint x="200" y="420" as="sourcePoint" />
            <mxPoint x="280" y="340" as="targetPoint" />
            <Array as="points">
              <mxPoint x="270" y="420" />
            </Array>
          </mxGeometry>
        </mxCell>
        <mxCell id="OR7JxCmOTuZEEJR0-Gg7-29" value="" style="endArrow=none;html=1;rounded=0;entryX=0;entryY=0.5;entryDx=0;entryDy=0;fillColor=#dae8fc;strokeColor=#6c8ebf;" edge="1" parent="1" target="8O4i6KFrKmY47k0z4YiL-14">
          <mxGeometry width="50" height="50" relative="1" as="geometry">
            <mxPoint x="200" y="420" as="sourcePoint" />
            <mxPoint x="300" y="240" as="targetPoint" />
            <Array as="points">
              <mxPoint x="270" y="350" />
            </Array>
          </mxGeometry>
        </mxCell>
        <mxCell id="OR7JxCmOTuZEEJR0-Gg7-31" value="View Cart" style="ellipse;whiteSpace=wrap;html=1;" vertex="1" parent="1">
          <mxGeometry x="327.5" y="650" width="115" height="40" as="geometry" />
        </mxCell>
        <mxCell id="OR7JxCmOTuZEEJR0-Gg7-34" value="" style="endArrow=none;html=1;rounded=0;entryX=0;entryY=0.5;entryDx=0;entryDy=0;fontColor=#7EFF0D;fillColor=#fff2cc;strokeColor=#d6b656;" edge="1" parent="1" target="8O4i6KFrKmY47k0z4YiL-13">
          <mxGeometry width="50" height="50" relative="1" as="geometry">
            <mxPoint x="210" y="200" as="sourcePoint" />
            <mxPoint x="270" y="570" as="targetPoint" />
          </mxGeometry>
        </mxCell>
        <mxCell id="OR7JxCmOTuZEEJR0-Gg7-36" value="" style="endArrow=none;html=1;rounded=0;entryX=1;entryY=0.5;entryDx=0;entryDy=0;fillColor=#f8cecc;strokeColor=#b85450;" edge="1" parent="1" target="8O4i6KFrKmY47k0z4YiL-13">
          <mxGeometry width="50" height="50" relative="1" as="geometry">
            <mxPoint x="788" y="350" as="sourcePoint" />
            <mxPoint x="442.5" y="200" as="targetPoint" />
            <Array as="points">
              <mxPoint x="470" y="200" />
            </Array>
          </mxGeometry>
        </mxCell>
        <mxCell id="OR7JxCmOTuZEEJR0-Gg7-37" value="" style="endArrow=none;html=1;rounded=0;entryX=0;entryY=0.5;entryDx=0;entryDy=0;fillColor=#dae8fc;strokeColor=#6c8ebf;" edge="1" parent="1" target="8O4i6KFrKmY47k0z4YiL-8">
          <mxGeometry width="50" height="50" relative="1" as="geometry">
            <mxPoint x="200" y="420" as="sourcePoint" />
            <mxPoint x="420" y="395" as="targetPoint" />
            <Array as="points">
              <mxPoint x="260" y="490" />
            </Array>
          </mxGeometry>
        </mxCell>
        <mxCell id="OR7JxCmOTuZEEJR0-Gg7-108" value="" style="endArrow=classic;html=1;rounded=0;exitX=0.5;exitY=0;exitDx=0;exitDy=0;entryX=0.5;entryY=1;entryDx=0;entryDy=0;dashed=1;" edge="1" parent="1" source="OR7JxCmOTuZEEJR0-Gg7-31" target="8O4i6KFrKmY47k0z4YiL-9">
          <mxGeometry width="50" height="50" relative="1" as="geometry">
            <mxPoint x="360" y="590" as="sourcePoint" />
            <mxPoint x="410" y="540" as="targetPoint" />
          </mxGeometry>
        </mxCell>
        <mxCell id="OR7JxCmOTuZEEJR0-Gg7-115" value="&amp;lt;&amp;lt;Extend&amp;gt;&amp;gt;" style="edgeLabel;html=1;align=center;verticalAlign=middle;resizable=0;points=[];" vertex="1" connectable="0" parent="OR7JxCmOTuZEEJR0-Gg7-108">
          <mxGeometry x="-0.1504" y="-1" relative="1" as="geometry">
            <mxPoint as="offset" />
          </mxGeometry>
        </mxCell>
        <mxCell id="OR7JxCmOTuZEEJR0-Gg7-109" value="" style="endArrow=classic;html=1;rounded=0;exitX=0.5;exitY=0;exitDx=0;exitDy=0;entryX=0.5;entryY=1;entryDx=0;entryDy=0;dashed=1;" edge="1" parent="1" source="8O4i6KFrKmY47k0z4YiL-9" target="8O4i6KFrKmY47k0z4YiL-8">
          <mxGeometry width="50" height="50" relative="1" as="geometry">
            <mxPoint x="425" y="510" as="sourcePoint" />
            <mxPoint x="425" y="510" as="targetPoint" />
            <Array as="points" />
          </mxGeometry>
        </mxCell>
        <mxCell id="OR7JxCmOTuZEEJR0-Gg7-114" value="&amp;lt;&amp;lt;Extend&amp;gt;&amp;gt;" style="edgeLabel;html=1;align=center;verticalAlign=middle;resizable=0;points=[];" vertex="1" connectable="0" parent="OR7JxCmOTuZEEJR0-Gg7-109">
          <mxGeometry x="-0.0064" relative="1" as="geometry">
            <mxPoint as="offset" />
          </mxGeometry>
        </mxCell>
        <mxCell id="OR7JxCmOTuZEEJR0-Gg7-110" value="" style="endArrow=classic;html=1;rounded=0;exitX=0;exitY=0.5;exitDx=0;exitDy=0;entryX=1;entryY=0.5;entryDx=0;entryDy=0;dashed=1;" edge="1" parent="1" source="8O4i6KFrKmY47k0z4YiL-10" target="8O4i6KFrKmY47k0z4YiL-9">
          <mxGeometry width="50" height="50" relative="1" as="geometry">
            <mxPoint x="460" y="590" as="sourcePoint" />
            <mxPoint x="510" y="540" as="targetPoint" />
          </mxGeometry>
        </mxCell>
        <mxCell id="OR7JxCmOTuZEEJR0-Gg7-117" value="&amp;lt;&amp;lt;Include&amp;gt;&amp;gt;" style="edgeLabel;html=1;align=center;verticalAlign=middle;resizable=0;points=[];" vertex="1" connectable="0" parent="OR7JxCmOTuZEEJR0-Gg7-110">
          <mxGeometry x="-0.0803" relative="1" as="geometry">
            <mxPoint x="-28" as="offset" />
          </mxGeometry>
        </mxCell>
        <mxCell id="OR7JxCmOTuZEEJR0-Gg7-118" value="&lt;font style=&quot;font-size: 10px;&quot;&gt;Detect the Weather&lt;/font&gt;" style="ellipse;whiteSpace=wrap;html=1;" vertex="1" parent="1">
          <mxGeometry x="650" y="240" width="80" height="40" as="geometry" />
        </mxCell>
        <mxCell id="OR7JxCmOTuZEEJR0-Gg7-119" value="" style="endArrow=none;html=1;rounded=0;entryX=0;entryY=0;entryDx=0;entryDy=0;exitX=1;exitY=1;exitDx=0;exitDy=0;dashed=1;startArrow=open;startFill=0;" edge="1" parent="1" source="8O4i6KFrKmY47k0z4YiL-12" target="OR7JxCmOTuZEEJR0-Gg7-118">
          <mxGeometry width="50" height="50" relative="1" as="geometry">
            <mxPoint x="610" y="540" as="sourcePoint" />
            <mxPoint x="660" y="490" as="targetPoint" />
            <Array as="points" />
          </mxGeometry>
        </mxCell>
        <mxCell id="OR7JxCmOTuZEEJR0-Gg7-120" value="&lt;font style=&quot;font-size: 8px;&quot;&gt;&amp;lt;&amp;lt;Extend&amp;gt;&amp;gt;&lt;/font&gt;" style="edgeLabel;html=1;align=center;verticalAlign=middle;resizable=0;points=[];" vertex="1" connectable="0" parent="OR7JxCmOTuZEEJR0-Gg7-119">
          <mxGeometry x="0.0598" relative="1" as="geometry">
            <mxPoint x="-21" y="5" as="offset" />
          </mxGeometry>
        </mxCell>
        <mxCell id="OR7JxCmOTuZEEJR0-Gg7-121" value="" style="endArrow=none;html=1;rounded=0;exitX=1;exitY=0.5;exitDx=0;exitDy=0;fillColor=#f8cecc;strokeColor=#b85450;" edge="1" parent="1" source="8O4i6KFrKmY47k0z4YiL-4">
          <mxGeometry width="50" height="50" relative="1" as="geometry">
            <mxPoint x="460" y="280" as="sourcePoint" />
            <mxPoint x="790" y="350" as="targetPoint" />
            <Array as="points">
              <mxPoint x="470" y="260" />
            </Array>
          </mxGeometry>
        </mxCell>
        <mxCell id="OR7JxCmOTuZEEJR0-Gg7-122" value="" style="endArrow=none;html=1;rounded=0;exitX=1;exitY=0.5;exitDx=0;exitDy=0;fillColor=#f8cecc;strokeColor=#b85450;" edge="1" parent="1" source="8O4i6KFrKmY47k0z4YiL-11">
          <mxGeometry width="50" height="50" relative="1" as="geometry">
            <mxPoint x="450" y="270" as="sourcePoint" />
            <mxPoint x="790" y="350" as="targetPoint" />
            <Array as="points">
              <mxPoint x="580" y="310" />
            </Array>
          </mxGeometry>
        </mxCell>
        <mxCell id="OR7JxCmOTuZEEJR0-Gg7-123" value="" style="endArrow=none;html=1;rounded=0;exitX=1;exitY=0.5;exitDx=0;exitDy=0;fillColor=#f8cecc;strokeColor=#b85450;" edge="1" parent="1" source="8O4i6KFrKmY47k0z4YiL-14">
          <mxGeometry width="50" height="50" relative="1" as="geometry">
            <mxPoint x="610" y="400" as="sourcePoint" />
            <mxPoint x="790" y="350" as="targetPoint" />
          </mxGeometry>
        </mxCell>
        <mxCell id="OR7JxCmOTuZEEJR0-Gg7-124" value="" style="endArrow=none;html=1;rounded=0;exitX=1;exitY=0.5;exitDx=0;exitDy=0;fillColor=#f8cecc;strokeColor=#b85450;" edge="1" parent="1" source="8O4i6KFrKmY47k0z4YiL-6">
          <mxGeometry width="50" height="50" relative="1" as="geometry">
            <mxPoint x="680" y="420" as="sourcePoint" />
            <mxPoint x="790" y="350" as="targetPoint" />
            <Array as="points">
              <mxPoint x="590" y="378" />
            </Array>
          </mxGeometry>
        </mxCell>
        <mxCell id="OR7JxCmOTuZEEJR0-Gg7-125" value="" style="endArrow=none;html=1;rounded=0;exitX=1;exitY=0.5;exitDx=0;exitDy=0;fillColor=#f8cecc;strokeColor=#b85450;" edge="1" parent="1" source="OR7JxCmOTuZEEJR0-Gg7-2">
          <mxGeometry width="50" height="50" relative="1" as="geometry">
            <mxPoint x="700" y="450" as="sourcePoint" />
            <mxPoint x="790" y="350" as="targetPoint" />
            <Array as="points">
              <mxPoint x="480" y="420" />
            </Array>
          </mxGeometry>
        </mxCell>
        <mxCell id="OR7JxCmOTuZEEJR0-Gg7-126" value="" style="endArrow=none;html=1;rounded=0;exitX=1;exitY=0.5;exitDx=0;exitDy=0;fillColor=#f8cecc;strokeColor=#b85450;" edge="1" parent="1" source="8O4i6KFrKmY47k0z4YiL-5">
          <mxGeometry width="50" height="50" relative="1" as="geometry">
            <mxPoint x="710" y="490" as="sourcePoint" />
            <mxPoint x="790" y="350" as="targetPoint" />
            <Array as="points">
              <mxPoint x="580" y="455" />
            </Array>
          </mxGeometry>
        </mxCell>
        <mxCell id="OR7JxCmOTuZEEJR0-Gg7-127" value="" style="endArrow=none;html=1;rounded=0;exitX=1;exitY=0.5;exitDx=0;exitDy=0;fillColor=#f8cecc;strokeColor=#b85450;" edge="1" parent="1" source="8O4i6KFrKmY47k0z4YiL-8">
          <mxGeometry width="50" height="50" relative="1" as="geometry">
            <mxPoint x="660" y="500" as="sourcePoint" />
            <mxPoint x="790" y="350" as="targetPoint" />
            <Array as="points">
              <mxPoint x="560" y="490" />
            </Array>
          </mxGeometry>
        </mxCell>
        <mxCell id="OR7JxCmOTuZEEJR0-Gg7-128" value="" style="endArrow=none;html=1;rounded=0;exitX=0.5;exitY=0;exitDx=0;exitDy=0;fillColor=#f8cecc;strokeColor=#b85450;" edge="1" parent="1" source="8O4i6KFrKmY47k0z4YiL-10">
          <mxGeometry width="50" height="50" relative="1" as="geometry">
            <mxPoint x="640" y="520" as="sourcePoint" />
            <mxPoint x="790" y="350" as="targetPoint" />
          </mxGeometry>
        </mxCell>
        <mxCell id="OR7JxCmOTuZEEJR0-Gg7-129" value="" style="endArrow=none;html=1;rounded=0;exitX=1;exitY=0;exitDx=0;exitDy=0;fillColor=#f8cecc;strokeColor=#b85450;" edge="1" parent="1" source="8O4i6KFrKmY47k0z4YiL-9">
          <mxGeometry width="50" height="50" relative="1" as="geometry">
            <mxPoint x="640" y="500" as="sourcePoint" />
            <mxPoint x="790" y="350" as="targetPoint" />
            <Array as="points">
              <mxPoint x="470" y="560" />
            </Array>
          </mxGeometry>
        </mxCell>
        <mxCell id="OR7JxCmOTuZEEJR0-Gg7-131" value="" style="endArrow=none;html=1;rounded=0;exitX=1;exitY=0.5;exitDx=0;exitDy=0;fillColor=#f8cecc;strokeColor=#b85450;" edge="1" parent="1" source="OR7JxCmOTuZEEJR0-Gg7-31">
          <mxGeometry width="50" height="50" relative="1" as="geometry">
            <mxPoint x="570" y="570" as="sourcePoint" />
            <mxPoint x="790" y="350" as="targetPoint" />
            <Array as="points">
              <mxPoint x="480" y="670" />
            </Array>
          </mxGeometry>
        </mxCell>
        <mxCell id="OR7JxCmOTuZEEJR0-Gg7-135" value="&lt;p style=&quot;margin: 10px 0px 0px 10px; font-size: 6px;&quot;&gt;&lt;b style=&quot;&quot;&gt;&lt;font style=&quot;font-size: 6px;&quot;&gt;Condition:&amp;nbsp; &amp;nbsp; &amp;nbsp; &amp;nbsp; &amp;nbsp; &amp;nbsp; &amp;nbsp; &amp;nbsp; &amp;nbsp;&lt;/font&gt;&lt;/b&gt;&lt;span style=&quot;background-color: initial; text-align: left;&quot;&gt;{Booked Campsite is rainy}&lt;/span&gt;&lt;/p&gt;&lt;font style=&quot;font-size: 6px;&quot;&gt;&lt;br&gt;&lt;b&gt;Extension Point:&lt;br&gt;&lt;/b&gt;&lt;div style=&quot;font-weight: bold; text-align: center;&quot;&gt;&lt;span style=&quot;background-color: initial; text-align: left; font-weight: normal;&quot;&gt;Send notification to alert user&lt;/span&gt;&lt;/div&gt;&lt;/font&gt;" style="shape=note;html=1;size=15;spacingLeft=5;align=left;html=1;overflow=fill;whiteSpace=wrap;align=center;" vertex="1" parent="1">
          <mxGeometry x="670" y="150" width="89" height="70" as="geometry" />
        </mxCell>
        <mxCell id="OR7JxCmOTuZEEJR0-Gg7-140" value="" style="endArrow=none;dashed=1;html=1;dashPattern=1 3;strokeWidth=2;rounded=0;entryX=0.5;entryY=1;entryDx=0;entryDy=0;entryPerimeter=0;" edge="1" parent="1" target="OR7JxCmOTuZEEJR0-Gg7-135">
          <mxGeometry width="50" height="50" relative="1" as="geometry">
            <mxPoint x="650" y="230" as="sourcePoint" />
            <mxPoint x="680" y="220" as="targetPoint" />
          </mxGeometry>
        </mxCell>
      </root>
    </mxGraphModel>
  </diagram>
</mxfile>
